<svg width="640" height="440" viewBox="0 0 640 440" fill="none" xmlns="http://www.w3.org/2000/svg">
  <rect x="20" y="20" width="600" height="400" rx="32" fill="#FFFDF7" stroke="#E8D9BC" stroke-width="2"/>
  <rect x="48" y="48" width="544" height="24" rx="12" fill="#F7F0E0"/>
  <circle cx="82" cy="60" r="6" fill="#E4B266"/>
  <circle cx="104" cy="60" r="6" fill="#D77E5F"/>
  <circle cx="126" cy="60" r="6" fill="#86B6C9"/>
  <rect x="64" y="96" width="314" height="188" rx="26" fill="#F8E9C5"/>
  <rect x="90" y="122" width="262" height="136" rx="18" fill="#FFF8E8" stroke="#D7C29B" stroke-width="2"/>
  <rect x="118" y="148" width="84" height="18" rx="9" fill="#DDEDF4"/>
  <rect x="118" y="181" width="112" height="12" rx="6" fill="#EAC872"/>
  <rect x="118" y="203" width="92" height="12" rx="6" fill="#EAC872"/>
  <rect x="118" y="225" width="130" height="12" rx="6" fill="#EAC872"/>
  <path d="M276 176L296 196L328 154" stroke="#356C7D" stroke-width="12" stroke-linecap="round" stroke-linejoin="round"/>
  <rect x="400" y="96" width="176" height="88" rx="22" fill="#E7F1F5"/>
  <rect x="424" y="122" width="92" height="14" rx="7" fill="#86B6C9"/>
  <rect x="424" y="148" width="128" height="10" rx="5" fill="#BED8E3"/>
  <rect x="424" y="166" width="106" height="10" rx="5" fill="#BED8E3"/>
  <rect x="400" y="200" width="176" height="84" rx="22" fill="#FFF2D9"/>
  <rect x="424" y="226" width="78" height="14" rx="7" fill="#D77E5F"/>
  <rect x="424" y="252" width="120" height="10" rx="5" fill="#E4B266"/>
  <circle cx="146" cy="340" r="42" fill="#F0C56F"/>
  <circle cx="146" cy="320" r="18" fill="#1E293B"/>
  <path d="M114 378C118 354 127 344 146 344C165 344 174 354 178 378" fill="#356C7D"/>
  <circle cx="320" cy="340" r="42" fill="#86B6C9"/>
  <circle cx="320" cy="320" r="18" fill="#1E293B"/>
  <path d="M288 378C292 354 301 344 320 344C339 344 348 354 352 378" fill="#D77E5F"/>
  <circle cx="494" cy="340" r="42" fill="#D77E5F"/>
  <circle cx="494" cy="320" r="18" fill="#1E293B"/>
  <path d="M462 378C466 354 475 344 494 344C513 344 522 354 526 378" fill="#F0C56F"/>
  <path d="M188 326H278" stroke="#D8E5EA" stroke-width="8" stroke-linecap="round"/>
  <path d="M362 326H452" stroke="#E9D7BA" stroke-width="8" stroke-linecap="round"/>
  <rect x="252" y="298" width="136" height="64" rx="20" fill="#1E293B"/>
  <text x="320" y="324" text-anchor="middle" fill="#FFF8E8" font-family="Georgia, serif" font-size="18" font-weight="700">teachers</text>
  <text x="320" y="347" text-anchor="middle" fill="#F0C56F" font-family="Arial, sans-serif" font-size="16">+</text>
  <text x="320" y="368" text-anchor="middle" fill="#B7D7E3" font-family="Georgia, serif" font-size="18" font-weight="700">developers</text>
</svg>
