<svg width="324" height="324" viewBox="0 0 324 324" fill="none" xmlns="http://www.w3.org/2000/svg">
<g clip-path="url(#clip0_304_336)">
<path d="M119.652 36.7809C132.889 23.8072 154.129 20.5268 170.869 28.8708L275.139 80.8432C280.474 83.5025 285.052 87.2095 288.54 91.6952L316.381 127.496C326.795 140.888 325.965 159.056 314.341 172.138L204.265 296.015C189.78 312.315 163.602 315.327 145.794 302.741L15.3917 210.582C-1.10954 198.919 -4.81465 177.736 6.80602 161.493L38.6017 117.052C39.9256 115.201 41.4245 113.454 43.0813 111.83L119.652 36.7809Z" fill="url(#paint0_linear_304_336)"/>
<path d="M173.754 231.072L66.7204 155.428L57.1204 100.592L8.26235 165.214L3.10669 185.156L13.0584 204.575L158.9 306.71L173.832 307.736L173.754 231.072Z" fill="#49431D"/>
<path d="M273.399 83.5681C278.289 86.0057 282.486 89.404 285.683 93.5157L313.524 129.318C323.07 141.593 322.309 158.248 311.653 170.239L201.578 294.115C188.3 309.058 164.304 311.818 147.98 300.282L17.5775 208.122C2.45145 197.431 -0.945451 178.013 9.70674 163.124L41.5029 118.683C42.7164 116.987 44.0905 115.385 45.609 113.897L122.18 38.8471C134.314 26.9547 153.784 23.9479 169.129 31.5964L273.399 83.5681Z" stroke="#49431D" stroke-width="6.58069"/>
<path d="M274.324 82.7681C295.65 95.7736 299.976 122.54 283.549 141.026L207.564 226.538C193.137 242.774 167.722 246.808 149.216 235.404C133.573 225.765 114.901 213.818 97.6983 201.66C80.4952 189.501 63.186 176.02 49.0888 164.641C32.4115 151.179 31.0078 128.192 45.4343 111.956L121.42 26.443C137.847 7.95699 168.054 5.59729 187.124 21.141C202.746 33.8736 219.472 47.2255 228.965 53.9346C238.458 60.6437 256.855 72.115 274.324 82.7681Z" fill="#AFF04C" stroke="#49431D" stroke-width="6.58069"/>
<path d="M180.862 99.5465C181.567 102.336 184.379 104.244 187.585 104.108L187.607 104.108C187.651 104.107 187.74 104.105 187.87 104.104C188.13 104.104 188.551 104.107 189.107 104.133C190.222 104.184 191.851 104.319 193.776 104.657C197.661 105.339 202.511 106.804 206.844 109.867C211.43 113.108 213.931 119.58 212.384 129.026C210.861 138.324 205.491 149.367 196.317 159.691C187.143 170.015 176.315 177.2 166.514 180.647C156.555 184.149 148.918 183.457 144.332 180.216C142.154 178.676 140.89 176.495 139.136 173C137.604 169.947 135.414 165.142 130.76 161.852C126.106 158.563 120.36 157.76 116.677 157.127C112.461 156.403 109.791 155.804 107.612 154.265C103.026 151.023 100.525 144.551 102.073 135.104C103.596 125.807 108.966 114.764 118.14 104.44C127.314 94.1159 138.142 86.93 147.943 83.4832C157.901 79.9812 165.538 80.674 170.124 83.9152C174.11 86.7319 176.834 90.59 178.586 93.9552C179.446 95.6083 180.033 97.0643 180.397 98.0874C180.578 98.5964 180.702 98.9921 180.777 99.2437C180.814 99.3693 180.839 99.4589 180.853 99.5076L180.863 99.547L180.862 99.5465Z" stroke="#49431D" stroke-width="12.8048" stroke-linejoin="round"/>
<path d="M235.476 94.1834C239.963 92.5593 238.258 84.7851 233.128 82.4812C227.997 80.1772 195.585 91.7952 183.521 97.8351C182.133 100.034 180.806 103.737 186.604 100.956C199.538 95.3302 230.989 95.8074 235.476 94.1834Z" fill="#49431D"/>
</g>
<defs>
<linearGradient id="paint0_linear_304_336" x1="250.102" y1="61.4609" x2="101.636" y2="271.534" gradientUnits="userSpaceOnUse">
<stop stop-color="#AFF04C"/>
<stop offset="1" stop-color="#6DAA03"/>
</linearGradient>
<clipPath id="clip0_304_336">
<rect width="323.551" height="302.712" fill="white" transform="translate(0 7.64404)"/>
</clipPath>
</defs>
</svg>
